<svg xmlns="http://www.w3.org/2000/svg" version="1.1" xmlns:xlink="http://www.w3.org/1999/xlink" xmlns:svgjs="http://svgjs.dev/svgjs" width="1440" height="900" preserveAspectRatio="none" viewBox="0 0 1440 900"><g mask="url(&quot;#SvgjsMask1028&quot;)" fill="none"><rect width="1440" height="900" x="0" y="0" fill="url(&quot;#SvgjsLinearGradient1029&quot;)"></rect><path d="M1434 110L1433 -184" stroke-width="6" stroke="url(&quot;#SvgjsLinearGradient1030&quot;)" stroke-linecap="round" class="Down"></path><path d="M151 840L150 1323" stroke-width="8" stroke="url(&quot;#SvgjsLinearGradient1030&quot;)" stroke-linecap="round" class="Down"></path><path d="M276 854L275 469" stroke-width="8" stroke="url(&quot;#SvgjsLinearGradient1031&quot;)" stroke-linecap="round" class="Up"></path><path d="M724 510L723 33" stroke-width="6" stroke="url(&quot;#SvgjsLinearGradient1031&quot;)" stroke-linecap="round" class="Up"></path><path d="M1394 817L1393 197" stroke-width="10" stroke="url(&quot;#SvgjsLinearGradient1031&quot;)" stroke-linecap="round" class="Up"></path><path d="M917 184L916 766" stroke-width="6" stroke="url(&quot;#SvgjsLinearGradient1030&quot;)" stroke-linecap="round" class="Down"></path><path d="M1062 36L1061 328" stroke-width="6" stroke="url(&quot;#SvgjsLinearGradient1030&quot;)" stroke-linecap="round" class="Down"></path><path d="M109 427L108 1097" stroke-width="10" stroke="url(&quot;#SvgjsLinearGradient1031&quot;)" stroke-linecap="round" class="Up"></path><path d="M292 8L291 502" stroke-width="8" stroke="url(&quot;#SvgjsLinearGradient1031&quot;)" stroke-linecap="round" class="Up"></path><path d="M743 2L742 -344" stroke-width="8" stroke="url(&quot;#SvgjsLinearGradient1031&quot;)" stroke-linecap="round" class="Up"></path><path d="M127 486L126 940" stroke-width="10" stroke="url(&quot;#SvgjsLinearGradient1031&quot;)" stroke-linecap="round" class="Up"></path><path d="M717 46L716 -395" stroke-width="8" stroke="url(&quot;#SvgjsLinearGradient1031&quot;)" stroke-linecap="round" class="Up"></path><path d="M630 532L629 17" stroke-width="10" stroke="url(&quot;#SvgjsLinearGradient1030&quot;)" stroke-linecap="round" class="Down"></path><path d="M526 830L525 573" stroke-width="10" stroke="url(&quot;#SvgjsLinearGradient1030&quot;)" stroke-linecap="round" class="Down"></path><path d="M203 810L202 1480" stroke-width="8" stroke="url(&quot;#SvgjsLinearGradient1031&quot;)" stroke-linecap="round" class="Up"></path><path d="M1201 794L1200 211" stroke-width="8" stroke="url(&quot;#SvgjsLinearGradient1030&quot;)" stroke-linecap="round" class="Down"></path><path d="M723 665L722 232" stroke-width="8" stroke="url(&quot;#SvgjsLinearGradient1030&quot;)" stroke-linecap="round" class="Down"></path><path d="M26 820L25 1062" stroke-width="8" stroke="url(&quot;#SvgjsLinearGradient1030&quot;)" stroke-linecap="round" class="Down"></path><path d="M1281 623L1280 80" stroke-width="10" stroke="url(&quot;#SvgjsLinearGradient1030&quot;)" stroke-linecap="round" class="Down"></path><path d="M615 369L614 963" stroke-width="6" stroke="url(&quot;#SvgjsLinearGradient1030&quot;)" stroke-linecap="round" class="Down"></path><path d="M238 609L237 1151" stroke-width="6" stroke="url(&quot;#SvgjsLinearGradient1030&quot;)" stroke-linecap="round" class="Down"></path><path d="M801 658L800 215" stroke-width="8" stroke="url(&quot;#SvgjsLinearGradient1030&quot;)" stroke-linecap="round" class="Down"></path><path d="M578 699L577 103" stroke-width="10" stroke="url(&quot;#SvgjsLinearGradient1030&quot;)" stroke-linecap="round" class="Down"></path><path d="M543 343L542 893" stroke-width="8" stroke="url(&quot;#SvgjsLinearGradient1030&quot;)" stroke-linecap="round" class="Down"></path><path d="M739 743L738 989" stroke-width="8" stroke="url(&quot;#SvgjsLinearGradient1031&quot;)" stroke-linecap="round" class="Up"></path><path d="M850 613L849 -34" stroke-width="10" stroke="url(&quot;#SvgjsLinearGradient1031&quot;)" stroke-linecap="round" class="Up"></path><path d="M1034 146L1033 415" stroke-width="8" stroke="url(&quot;#SvgjsLinearGradient1030&quot;)" stroke-linecap="round" class="Down"></path><path d="M1216 76L1215 -519" stroke-width="6" stroke="url(&quot;#SvgjsLinearGradient1030&quot;)" stroke-linecap="round" class="Down"></path><path d="M923 34L922 461" stroke-width="10" stroke="url(&quot;#SvgjsLinearGradient1031&quot;)" stroke-linecap="round" class="Up"></path><path d="M604 888L603 1546" stroke-width="8" stroke="url(&quot;#SvgjsLinearGradient1030&quot;)" stroke-linecap="round" class="Down"></path><path d="M699 14L698 456" stroke-width="6" stroke="url(&quot;#SvgjsLinearGradient1031&quot;)" stroke-linecap="round" class="Up"></path><path d="M952 440L951 95" stroke-width="6" stroke="url(&quot;#SvgjsLinearGradient1030&quot;)" stroke-linecap="round" class="Down"></path><path d="M1303 181L1302 -404" stroke-width="6" stroke="url(&quot;#SvgjsLinearGradient1031&quot;)" stroke-linecap="round" class="Up"></path><path d="M25 793L24 1261" stroke-width="10" stroke="url(&quot;#SvgjsLinearGradient1030&quot;)" stroke-linecap="round" class="Down"></path><path d="M1281 611L1280 18" stroke-width="8" stroke="url(&quot;#SvgjsLinearGradient1031&quot;)" stroke-linecap="round" class="Up"></path><path d="M1308 608L1307 1203" stroke-width="10" stroke="url(&quot;#SvgjsLinearGradient1030&quot;)" stroke-linecap="round" class="Down"></path></g><defs><mask id="SvgjsMask1028"><rect width="1440" height="900" fill="#ffffff"></rect></mask><linearGradient x1="50%" y1="0%" x2="50%" y2="100%" gradientUnits="userSpaceOnUse" id="SvgjsLinearGradient1029"><stop stop-color="#0e2a47" offset="0"></stop><stop stop-color="rgba(2, 6, 23, 1)" offset="1"></stop></linearGradient><linearGradient x1="0%" y1="0%" x2="0%" y2="100%" id="SvgjsLinearGradient1030"><stop stop-color="rgba(28, 83, 142, 0)" offset="0"></stop><stop stop-color="#1c538e" offset="1"></stop></linearGradient><linearGradient x1="0%" y1="100%" x2="0%" y2="0%" id="SvgjsLinearGradient1031"><stop stop-color="rgba(28, 83, 142, 0)" offset="0"></stop><stop stop-color="#1c538e" offset="1"></stop></linearGradient></defs></svg>